<svg xmlns="http://www.w3.org/2000/svg" x="0" y="0" viewBox="0 0 345 345"><style type="text/css">.d{font-family:Helvetica,Arial,sans-serif;font-size:14px;fill:#778488} .w{fill:#FFFFFF} .g{fill:#778488} .b{fill:#00B4E6} .y{fill:#E1F11D} .a{fill:#00E658} .r{fill:#F11D64} .s{font-size:12px} .x{font-weight:bold}</style><g class="d"><g id="frame"><filter id="shadow" x="-3%" y="-3%" width="107%" height="107%"><feDropShadow dx="0" dy="0" stdDeviation="5" flood-color="#00B4E6" flood-opacity="1" /></filter><path style="fill:#057B9D" d="M30.8,22h289.3c5.4,0,9.9,3.6,9.9,8V323c0,4.4-4.4,8-9.8,8H30.8c-5.4,0-9.8-3.6-9.8-8V30   C21,25.6,25.4,22,30.8,22z"/><path style="fill:#131026;filter:url(#shadow)" d="M28,18.1h294c4.4,0,8,3.6,8,8v294c0,4.4-3.6,8-8,8H28c-4.4,0-8-3.6-8-8v-294C20,21.7,23.6,18.1,28,18.1z"/><path style="fill:none;stroke:#00B4E6;stroke-width:2" d="M28,19.1h294c3.9,0,7,3.1,7,7v294c0,3.9-3.1,7-7,7H28c-3.9,0-7-3.1-7-7v-294C21,22.2,24.1,19.1,28,19.1z"/></g><g id="oc-logo" class="w" transform="translate(93 45)"><path d="M32,37.8c-4.3,4.3-12.2,1.3-12-5c-0.2-3.7,2.7-6.8,6.4-7c0.2,0,0.4,0,0.6,0     C33.3,25.5,36.2,33.6,32,37.8z M27,37.2c4.6,0.1,4.6-8.8,0-8.7C22.4,28.3,22.4,37.3,27,37.2z"/><path d="M35.7,43.8V26.1h3.4v1.7h0.1c1.7-2.3,4.9-2.7,7.2-1c0.3,0.3,0.7,0.6,0.9,0.9     c1.1,1.5,1.7,3.3,1.6,5.1c0.1,1.8-0.5,3.7-1.6,5.1c-1.8,2.4-6.4,2.7-8,0h-0.1v5.9C39.2,43.8,35.7,43.8,35.7,43.8z M42.4,36.9     c4.1,0.1,4-8.5-0.1-8.3C38,28.5,38,37.2,42.4,36.9z"/><path d="M57.4,39.9c-6.5,0.3-9-7.8-5.1-12.1c2.3-2.7,7.5-2.7,9.6,0.2c1.2,1.7,1.8,3.7,1.7,5.8H54     c0.1,0.9,0.4,1.8,1.1,2.5c1.2,1.3,4.4,1.2,4.9-0.8h3.5C62.7,38.2,60.2,40,57.4,39.9z M57.1,28.5c-1.7,0-2.7,1-3.1,2.9h5.9     c0.1-1.5-1.1-2.8-2.6-2.9C57.2,28.5,57.2,28.5,57.1,28.5z"/><path d="M68.8,26.1v1.8h0.1c1.4-2.2,4.3-2.8,6.5-1.5c0.3,0.2,0.6,0.4,0.8,0.7c0.9,1,1.3,2.3,1.3,3.6     v8.7H74v-8.2c0-0.7-0.2-1.3-0.6-1.8c-1.8-1.7-4.6,0-4.4,2.4v7.6h-3.5V26.1H68.8z"/><path d="M86.2,39.9c-6.4,0.3-8.9-7.8-5-12.1c3.1-3.6,10.4-2.3,10.9,2.9h-3.5     c-0.3-2.3-3.6-2.7-4.8-0.9c-0.6,0.9-0.9,2-0.8,3.1c0,1.1,0.2,2.2,0.8,3.1c1.3,1.9,4.9,1.4,5-1.1h3.4C92,37.9,89.4,39.9,86.2,39.9     z"/><path d="M106,37.8c-4.3,4.3-12.2,1.3-12-5c-0.2-3.7,2.7-6.8,6.4-7c0.2,0,0.4,0,0.6,0     C107.3,25.5,110.1,33.6,106,37.8z M101,37.2c4.6,0.1,4.6-8.8,0-8.7C96.4,28.3,96.4,37.3,101,37.2z"/><path d="M112.8,39.5l-4.6-13.4h3.6l2.1,6.9l0.6,2.1h0.1c0.2-1.4,2.3-7.6,2.8-9h3.5l-4.7,13.3    L112.8,39.5L112.8,39.5z"/><path d="M128.9,39.9c-6.5,0.3-9-7.8-5.1-12.1c2.3-2.7,7.5-2.7,9.6,0.2c1.2,1.7,1.8,3.7,1.7,5.8h-9.7    c0.1,0.9,0.4,1.8,1.1,2.5c1.2,1.3,4.4,1.2,4.9-0.8h3.5C134.4,38.2,131.9,39.9,128.9,39.9z M128.6,28.5c-1.7,0-2.7,1-3.1,2.9h5.9    c0.1-1.5-1-2.8-2.5-2.9C128.8,28.5,128.7,28.5,128.6,28.5z"/><path d="M140.7,26.1v2.1h0.1c0.6-1.7,2.4-2.6,4.1-2.2v3.1h-0.1c-2.5-0.3-4,1.2-4,3.8v6.5h-3.5V26.1    H140.7z"/><rect x="79.4" y="18.1" style="fill:#00B4E6" width="65.5" height="3"/></g><text transform="matrix(1 0 0 1 40 140)">Covered protocol</text><text transform="matrix(1 0 0 1 40 170)">Cover amount</text><text transform="matrix(1 0 0 1 40 200)">Duration</text><text transform="matrix(1 0 0 1 40 230)">Cover provider</text><text transform="matrix(1 0 0 1 40 260)">Proof of cover</text><text transform="matrix(1 0 0 1 310 45)" text-anchor="end" class="s">#0</text><g class="w"><text transform="matrix(1 0 0 1 310 140)" text-anchor="end">Uniswap V2</text><text transform="matrix(1 0 0 1 310 170)" text-anchor="end">1000 DAI</text><text transform="matrix(1 0 0 1 310 200)" text-anchor="end">30 days</text><text transform="matrix(1 0 0 1 310 230)" text-anchor="end">Nexus Mutual</text></g><text transform="matrix(1 0 0 1 310 260)" text-anchor="end" class="g">Pending</text><text transform="matrix(1 0 0 1 175 300)" text-anchor="middle" class="x w">● Quote expired and refunded</text></g></svg>